<?xml version="1.0" encoding="UTF-8"?>
<svg version="1.1" xmlns="http://www.w3.org/2000/svg" width="150" height="106">
<path d="M0 0 C0.85400391 0.00064453 1.70800781 0.00128906 2.58789062 0.00195312 C7.84330066 0.03910842 11.59880535 0.75921361 16.375 3.0625 C17.41333984 3.55363281 17.41333984 3.55363281 18.47265625 4.0546875 C20.3125 5.1875 20.3125 5.1875 22.3125 8.1875 C22.27125 9.3425 22.23 10.4975 22.1875 11.6875 C22.22875 12.8425 22.27 13.9975 22.3125 15.1875 C24.17905232 16.7958124 24.17905232 16.7958124 26.3125 18.1875 C27.5 21.25 27.5 21.25 28.3125 24.1875 C28.8075 25.1775 28.8075 25.1775 29.3125 26.1875 C35.09841511 26.29227512 40.60559366 26.18000545 46.3125 25.1875 C46.3125 24.5275 46.3125 23.8675 46.3125 23.1875 C46.98796875 23.208125 47.6634375 23.22875 48.359375 23.25 C51.20584527 23.18418566 53.58155403 23.01363256 56.3125 22.1875 C58.36473386 19.74853866 59.38724636 17.2187414 60.3125 14.1875 C62.2925 14.1875 64.2725 14.1875 66.3125 14.1875 C66.745625 15.3321875 66.745625 15.3321875 67.1875 16.5 C68.27519013 19.33779308 68.27519013 19.33779308 70.3125 22.1875 C71.1875 25.125 71.1875 25.125 71.3125 28.1875 C69.875 30.4375 69.875 30.4375 67.3125 32.1875 C66.08917969 32.40535156 64.86585938 32.62320313 63.60546875 32.84765625 C58.31448893 34.0932298 55.57362114 37.42498872 52.0625 41.375 C50.88179048 42.69184737 49.68954879 43.99847345 48.484375 45.29296875 C47.9697168 45.87199951 47.45505859 46.45103027 46.92480469 47.04760742 C46.39274414 47.42377197 45.86068359 47.79993652 45.3125 48.1875 C43.97047311 47.89110042 42.63615456 47.55740199 41.3125 47.1875 C38.16139597 48.78709844 38.16139597 48.78709844 37.88012695 51.15869141 C37.85394287 51.94421387 37.82775879 52.72973633 37.80078125 53.5390625 C37.74760742 54.81523438 37.74760742 54.81523438 37.69335938 56.1171875 C37.67080078 57.00664063 37.64824219 57.89609375 37.625 58.8125 C37.59083984 59.7096875 37.55667969 60.606875 37.52148438 61.53125 C37.43888787 63.74955613 37.37402077 65.96850936 37.3125 68.1875 C40.9425 68.1875 44.5725 68.1875 48.3125 68.1875 C48.4375 73.9375 48.4375 73.9375 47.3125 76.1875 C44.7499282 76.21460123 42.18764635 76.23438771 39.625 76.25 C38.90376953 76.25837891 38.18253906 76.26675781 37.43945312 76.27539062 C33.57672391 76.29302866 30.0823123 75.97522197 26.3125 75.1875 C25.714375 75.496875 25.11625 75.80625 24.5 76.125 C21.13707259 77.75842189 17.93323232 77.73092579 14.3125 77.1875 C11.19089614 76.07436994 8.25287139 74.71213702 5.3125 73.1875 C5.3125 73.8475 5.3125 74.5075 5.3125 75.1875 C4.9825 75.5175 4.6525 75.8475 4.3125 76.1875 C1.0662491 76.00409599 -2.15539736 75.66580886 -5.390625 75.34375 C-8.42478256 75.19995106 -10.75167973 75.52190982 -13.6875 76.1875 C-16 75.75 -16 75.75 -17.6875 75.1875 C-17.6875 74.5275 -17.6875 73.8675 -17.6875 73.1875 C-18.8321875 74.239375 -18.8321875 74.239375 -20 75.3125 C-22.42713108 76.98698707 -23.50641676 77.20133275 -26.5 76.97265625 C-28.47361446 76.57947524 -30.43960881 76.14548692 -32.39453125 75.66796875 C-33.15121094 75.50941406 -33.90789063 75.35085937 -34.6875 75.1875 C-35.0175 75.5175 -35.3475 75.8475 -35.6875 76.1875 C-39.40974599 76.48136153 -40.46536243 76.33559171 -43.6875 74.1875 C-46.62720658 70.98648617 -47.45577098 67.95705344 -48.375 63.75 C-48.62636719 62.63753906 -48.87773438 61.52507812 -49.13671875 60.37890625 C-49.62534447 57.54764944 -49.87963616 55.04877099 -49.6875 52.1875 C-49.3575 51.8575 -49.0275 51.5275 -48.6875 51.1875 C-49.09679986 49.13353274 -49.09679986 49.13353274 -49.6875 47.1875 C-46.875 46.0625 -46.875 46.0625 -43.6875 45.1875 C-42.6975 45.8475 -41.7075 46.5075 -40.6875 47.1875 C-39.73875 46.6925 -38.79 46.1975 -37.8125 45.6875 C-34.6875 44.1875 -34.6875 44.1875 -32.6875 44.1875 C-32.6875 43.5275 -32.6875 42.8675 -32.6875 42.1875 C-31.6975 41.5275 -30.7075 40.8675 -29.6875 40.1875 C-30.55375 39.34445313 -31.42 38.50140625 -32.3125 37.6328125 C-33.43776041 36.52630643 -34.56274628 35.41952112 -35.6875 34.3125 C-36.25984375 33.75691406 -36.8321875 33.20132813 -37.421875 32.62890625 C-38.88200782 31.18615596 -40.28899298 29.6900626 -41.6875 28.1875 C-41.6875 27.5275 -41.6875 26.8675 -41.6875 26.1875 C-43.3375 26.1875 -44.9875 26.1875 -46.6875 26.1875 C-46.6875 26.8475 -46.6875 27.5075 -46.6875 28.1875 C-47.29078125 28.22488281 -47.8940625 28.26226562 -48.515625 28.30078125 C-53.26669685 28.69159522 -55.94031573 29.10945578 -59.6875 32.1875 C-63.46310787 32.64793998 -64.42986778 32.35925481 -67.6875 30.1875 C-68.6775 29.8575 -69.6675 29.5275 -70.6875 29.1875 C-71.375 26.4375 -71.375 26.4375 -71.6875 23.1875 C-70.25 20.9375 -70.25 20.9375 -68.6875 19.1875 C-68.6875 18.5275 -68.6875 17.8675 -68.6875 17.1875 C-68.0275 17.1875 -67.3675 17.1875 -66.6875 17.1875 C-66.6875 16.1975 -66.6875 15.2075 -66.6875 14.1875 C-64.0475 14.1875 -61.4075 14.1875 -58.6875 14.1875 C-58.708125 14.950625 -58.72875 15.71375 -58.75 16.5 C-58.81692841 19.28935786 -58.81692841 19.28935786 -57.6875 22.1875 C-51.7475 21.8575 -45.8075 21.5275 -39.6875 21.1875 C-39.0275 22.5075 -38.3675 23.8275 -37.6875 25.1875 C-36.02757615 26.98348318 -34.3141028 28.7308101 -32.5625 30.4375 C-31.65242188 31.32953125 -30.74234375 32.2215625 -29.8046875 33.140625 C-29.10601562 33.81609375 -28.40734375 34.4915625 -27.6875 35.1875 C-27.0275 34.8575 -26.3675 34.5275 -25.6875 34.1875 C-24.20984834 34.11740267 -22.72915186 34.10314061 -21.25 34.125 C-20.07630859 34.13853516 -20.07630859 34.13853516 -18.87890625 34.15234375 C-18.15574219 34.16394531 -17.43257812 34.17554688 -16.6875 34.1875 C-13.47063782 34.51469439 -13.47063782 34.51469439 -10.98828125 31.8515625 C-9.98435338 30.84630492 -8.9885225 29.83291032 -8 28.8125 C-7.48888672 28.30460937 -6.97777344 27.79671875 -6.45117188 27.2734375 C-3.58078346 24.70505677 -3.58078346 24.70505677 -2.6875 21.1875 C3.2525 21.5175 9.1925 21.8475 15.3125 22.1875 C14.30413938 20.95482652 14.30413938 20.95482652 12.24609375 21.08984375 C11.01052734 21.10724609 11.01052734 21.10724609 9.75 21.125 C8.92371094 21.13402344 8.09742187 21.14304687 7.24609375 21.15234375 C6.60800781 21.16394531 5.96992187 21.17554687 5.3125 21.1875 C5.3125 20.1975 5.3125 19.2075 5.3125 18.1875 C6.6325 17.5275 7.9525 16.8675 9.3125 16.1875 C8.8175 14.7025 8.8175 14.7025 8.3125 13.1875 C1.0854377 13.82321381 -5.73561259 14.77243492 -12.375 17.8125 C-15.51814521 19.11720179 -17.3511304 19.75944907 -20.6875 19.1875 C-22.68575961 16.19011059 -22.96300398 15.55402492 -22.9375 12.1875 C-22.94523437 11.1665625 -22.94523437 11.1665625 -22.953125 10.125 C-22.6875 8.1875 -22.6875 8.1875 -20.6875 5.1875 C-19.6975 4.8575 -18.7075 4.5275 -17.6875 4.1875 C-17.0275 3.5275 -16.3675 2.8675 -15.6875 2.1875 C-10.45738258 -0.12348212 -5.60240185 -0.08144272 0 0 Z M-4.6875 4.1875 C-4.6875 4.5175 -4.6875 4.8475 -4.6875 5.1875 C-1.7175 5.1875 1.2525 5.1875 4.3125 5.1875 C4.3125 4.8575 4.3125 4.5275 4.3125 4.1875 C1.3425 4.1875 -1.6275 4.1875 -4.6875 4.1875 Z M-5.6875 7.1875 C-5.6875 7.5175 -5.6875 7.8475 -5.6875 8.1875 C-2.0575 8.1875 1.5725 8.1875 5.3125 8.1875 C5.3125 7.8575 5.3125 7.5275 5.3125 7.1875 C1.6825 7.1875 -1.9475 7.1875 -5.6875 7.1875 Z M-3.6875 11.1875 C-3.6875 11.5175 -3.6875 11.8475 -3.6875 12.1875 C-1.3775 12.1875 0.9325 12.1875 3.3125 12.1875 C3.3125 11.8575 3.3125 11.5275 3.3125 11.1875 C1.0025 11.1875 -1.3075 11.1875 -3.6875 11.1875 Z M-57.6875 25.1875 C-56.6875 27.1875 -56.6875 27.1875 -56.6875 27.1875 Z M14.3125 25.1875 C15.3125 27.1875 15.3125 27.1875 15.3125 27.1875 Z M48.3125 26.1875 C49.3125 28.1875 49.3125 28.1875 49.3125 28.1875 Z M-1.9375 30.6875 C-2.515 31.5125 -3.0925 32.3375 -3.6875 33.1875 C-0.93671116 34.10442961 0.67198913 34.29636083 3.5 34.25 C4.758125 34.229375 6.01625 34.20875 7.3125 34.1875 C7.3125 33.5275 7.3125 32.8675 7.3125 32.1875 C9.2925 31.5275 11.2725 30.8675 13.3125 30.1875 C13.3125 29.5275 13.3125 28.8675 13.3125 28.1875 C5.03656364 27.1726255 5.03656364 27.1726255 -1.9375 30.6875 Z M42.3125 28.1875 C43.3125 30.1875 43.3125 30.1875 43.3125 30.1875 Z M37.3125 29.1875 C38.3125 31.1875 38.3125 31.1875 38.3125 31.1875 Z M26.3125 32.1875 C27.3125 34.1875 27.3125 34.1875 27.3125 34.1875 Z M15.3125 34.1875 C16.3125 37.1875 16.3125 37.1875 16.3125 37.1875 Z M4.3125 37.1875 C5.3125 40.1875 5.3125 40.1875 5.3125 40.1875 Z M-0.6875 38.1875 C0.3125 40.1875 0.3125 40.1875 0.3125 40.1875 Z M16.80859375 38.84765625 C14.3125 39.1875 14.3125 39.1875 12.3125 38.1875 C12.3125 38.8475 12.3125 39.5075 12.3125 40.1875 C11.03052734 40.36925781 11.03052734 40.36925781 9.72265625 40.5546875 C8.61792969 40.72226562 7.51320313 40.88984375 6.375 41.0625 C5.27285156 41.22492187 4.17070313 41.38734375 3.03515625 41.5546875 C1.68744141 41.86792969 1.68744141 41.86792969 0.3125 42.1875 C-0.0175 42.8475 -0.3475 43.5075 -0.6875 44.1875 C5.49431768 44.93856196 11.13724284 45.2367975 17.30859375 44.38671875 C21.73701558 43.94646629 24.6569424 44.7504616 28.3125 47.1875 C28.9725 45.8675 29.6325 44.5475 30.3125 43.1875 C31.09625 43.39375 31.88 43.6 32.6875 43.8125 C33.55375 43.93625 34.42 44.06 35.3125 44.1875 C35.9725 43.5275 36.6325 42.8675 37.3125 42.1875 C35.3325 40.5375 33.3525 38.8875 31.3125 37.1875 C31.3125 37.8475 31.3125 38.5075 31.3125 39.1875 C30.3225 38.5275 29.3325 37.8675 28.3125 37.1875 C24.35103368 37.1875 20.68186038 38.06065785 16.80859375 38.84765625 Z M-6.6875 40.1875 C-5.6875 42.1875 -5.6875 42.1875 -5.6875 42.1875 Z M-28.6875 43.1875 C-27.6875 46.1875 -27.6875 46.1875 -27.6875 46.1875 Z M15.3125 47.1875 C15.3125 47.5175 15.3125 47.8475 15.3125 48.1875 C16.9625 48.1875 18.6125 48.1875 20.3125 48.1875 C20.3125 47.8575 20.3125 47.5275 20.3125 47.1875 C18.6625 47.1875 17.0125 47.1875 15.3125 47.1875 Z M-28.6875 49.1875 C-27.6875 51.1875 -27.6875 51.1875 -27.6875 51.1875 Z M-16.6875 49.1875 C-17.88195794 54.58468034 -17.60794183 59.59874431 -17.25 65.0625 C-17.19779297 65.94164063 -17.14558594 66.82078125 -17.09179688 67.7265625 C-16.96302439 69.88057499 -16.82608537 72.03409659 -16.6875 74.1875 C-16.3575 74.1875 -16.0275 74.1875 -15.6875 74.1875 C-15.6875 65.9375 -15.6875 57.6875 -15.6875 49.1875 C-16.0175 49.1875 -16.3475 49.1875 -16.6875 49.1875 Z M-2.6875 49.1875 C-2.90901549 50.97758467 -3.11432213 52.76968162 -3.3125 54.5625 C-3.42851563 55.56023437 -3.54453125 56.55796875 -3.6640625 57.5859375 C-3.67179687 58.44445312 -3.67953125 59.30296875 -3.6875 60.1875 C-3.0275 60.8475 -2.3675 61.5075 -1.6875 62.1875 C-1.6875 57.8975 -1.6875 53.6075 -1.6875 49.1875 C-2.0175 49.1875 -2.3475 49.1875 -2.6875 49.1875 Z M-41.6875 50.1875 C-40.6875 53.1875 -40.6875 53.1875 -40.6875 53.1875 Z M-37.6875 50.1875 C-36.6875 53.1875 -36.6875 53.1875 -36.6875 53.1875 Z M-24.6875 52.1875 C-23.6875 55.1875 -23.6875 55.1875 -23.6875 55.1875 Z M-27.6875 53.1875 C-26.6875 56.1875 -26.6875 56.1875 -26.6875 56.1875 Z M-38.6875 54.1875 C-37.6875 57.1875 -37.6875 57.1875 -37.6875 57.1875 Z M-40.6875 55.1875 C-39.6875 58.1875 -39.6875 58.1875 -39.6875 58.1875 Z M6.3125 55.1875 C7.3125 57.1875 7.3125 57.1875 7.3125 57.1875 Z M-47.6875 56.1875 C-46.6875 59.1875 -46.6875 59.1875 -46.6875 59.1875 Z M13.3125 56.1875 C14.3125 59.1875 14.3125 59.1875 14.3125 59.1875 Z M29.3125 56.1875 C30.3125 58.1875 30.3125 58.1875 30.3125 58.1875 Z M-26.6875 57.1875 C-26.3575 58.1775 -26.0275 59.1675 -25.6875 60.1875 C-25.3575 59.1975 -25.0275 58.2075 -24.6875 57.1875 C-25.3475 57.1875 -26.0075 57.1875 -26.6875 57.1875 Z M-18.6875 57.1875 C-17.6875 59.1875 -17.6875 59.1875 -17.6875 59.1875 Z M-39.6875 58.1875 C-38.6875 61.1875 -38.6875 61.1875 -38.6875 61.1875 Z M-46.6875 60.1875 C-45.6875 63.1875 -45.6875 63.1875 -45.6875 63.1875 Z M-32.6875 60.1875 C-33.0175 61.1775 -33.3475 62.1675 -33.6875 63.1875 C-33.0275 63.1875 -32.3675 63.1875 -31.6875 63.1875 C-32.0175 62.1975 -32.3475 61.2075 -32.6875 60.1875 Z M-19.6875 61.1875 C-18.6875 63.1875 -18.6875 63.1875 -18.6875 63.1875 Z M-31.6875 64.1875 C-30.6875 66.1875 -30.6875 66.1875 -30.6875 66.1875 Z M13.3125 64.1875 C14.3125 66.1875 14.3125 66.1875 14.3125 66.1875 Z M-45.6875 65.1875 C-44.6875 68.1875 -44.6875 68.1875 -44.6875 68.1875 Z M-34.6875 65.1875 C-33.6875 67.1875 -33.6875 67.1875 -33.6875 67.1875 Z M-20.6875 65.1875 C-19.6875 68.1875 -19.6875 68.1875 -19.6875 68.1875 Z M6.3125 66.1875 C7.3125 68.1875 7.3125 68.1875 7.3125 68.1875 Z M27.3125 67.1875 C28.3125 69.1875 28.3125 69.1875 28.3125 69.1875 Z M-30.6875 68.1875 C-29.6875 70.1875 -29.6875 70.1875 -29.6875 70.1875 Z M-35.6875 69.1875 C-34.6875 71.1875 -34.6875 71.1875 -34.6875 71.1875 Z M-21.6875 69.1875 C-20.6875 72.1875 -20.6875 72.1875 -20.6875 72.1875 Z M15.3125 74.1875 C15.3125 74.5175 15.3125 74.8475 15.3125 75.1875 C16.9625 75.1875 18.6125 75.1875 20.3125 75.1875 C20.3125 74.8575 20.3125 74.5275 20.3125 74.1875 C18.6625 74.1875 17.0125 74.1875 15.3125 74.1875 Z " fill="#1185F9" transform="translate(73.6875,13.8125)"/>
<path d="M0 0 C2.64 0 5.28 0 8 0 C7.979375 0.763125 7.95875 1.52625 7.9375 2.3125 C7.87057159 5.10185786 7.87057159 5.10185786 9 8 C14.94 7.67 20.88 7.34 27 7 C27.66 8.32 28.32 9.64 29 11 C30.65992385 12.79598318 32.3733972 14.5433101 34.125 16.25 C35.03507812 17.14203125 35.94515625 18.0340625 36.8828125 18.953125 C37.58148438 19.62859375 38.28015625 20.3040625 39 21 C39.66 20.67 40.32 20.34 41 20 C42.47765166 19.92990267 43.95834814 19.91564061 45.4375 19.9375 C46.61119141 19.95103516 46.61119141 19.95103516 47.80859375 19.96484375 C48.53175781 19.97644531 49.25492188 19.98804687 50 20 C53.22311583 20.34005612 53.22311583 20.34005612 55.59375 17.59375 C56.57001068 16.56960733 57.5384995 15.53801248 58.5 14.5 C60.28290213 12.57522237 62.07115811 10.78940754 64 9 C64.99 9 65.98 9 67 9 C66.66464893 15.06985428 62.35678787 17.83888469 58.12890625 21.62695312 C56.27915685 23.30972809 56.27915685 23.30972809 54 26 C54.40399133 28.05847843 54.40399133 28.05847843 55 30 C53.5625 31.75 53.5625 31.75 52 33 C52.74636719 33.03996094 53.49273437 33.07992187 54.26171875 33.12109375 C58.18301155 34.37971127 58.89903458 36.49820167 60.8125 40.0625 C61.41707031 41.16722656 62.02164063 42.27195313 62.64453125 43.41015625 C63.09183594 44.26480469 63.53914063 45.11945313 64 46 C64.33 42.04 64.66 38.08 65 34 C66.98 34 68.96 34 71 34 C71.19581346 38.47884439 71.3802636 42.95808426 71.5625 47.4375 C71.64661133 49.3565918 71.64661133 49.3565918 71.73242188 51.31445312 C71.78076172 52.52939453 71.82910156 53.74433594 71.87890625 54.99609375 C71.94960327 56.68496704 71.94960327 56.68496704 72.02172852 58.40795898 C72 61 72 61 71 62 C67.7537491 61.81659599 64.53210264 61.47830886 61.296875 61.15625 C58.26271744 61.01245106 55.93582027 61.33440982 53 62 C50.6875 61.5625 50.6875 61.5625 49 61 C49 60.34 49 59.68 49 59 C47.8553125 60.051875 47.8553125 60.051875 46.6875 61.125 C44.26036892 62.79948707 43.18108324 63.01383275 40.1875 62.78515625 C38.21388554 62.39197524 36.24789119 61.95798692 34.29296875 61.48046875 C33.53628906 61.32191406 32.77960937 61.16335937 32 61 C31.67 61.33 31.34 61.66 31 62 C27.27775401 62.29386153 26.22213757 62.14809171 23 60 C20.06029342 56.79898617 19.23172902 53.76955344 18.3125 49.5625 C18.06113281 48.45003906 17.80976563 47.33757812 17.55078125 46.19140625 C17.06215553 43.36014944 16.80786384 40.86127099 17 38 C17.33 37.67 17.66 37.34 18 37 C17.59070014 34.94603274 17.59070014 34.94603274 17 33 C19.8125 31.875 19.8125 31.875 23 31 C23.99 31.66 24.98 32.32 26 33 C26.94875 32.505 27.8975 32.01 28.875 31.5 C32 30 32 30 34 30 C34 29.34 34 28.68 34 28 C34.99 27.34 35.98 26.68 37 26 C36.13375 25.15695313 35.2675 24.31390625 34.375 23.4453125 C33.24973959 22.33880643 32.12475372 21.23202112 31 20.125 C30.42765625 19.56941406 29.8553125 19.01382813 29.265625 18.44140625 C27.80549218 16.99865596 26.39850702 15.5025626 25 14 C25 13.34 25 12.68 25 12 C23.35 12 21.7 12 20 12 C20 12.66 20 13.32 20 14 C19.39671875 14.03738281 18.7934375 14.07476562 18.171875 14.11328125 C13.42080315 14.50409522 10.74718427 14.92195578 7 18 C3.22439213 18.46043998 2.25763222 18.17175481 -1 16 C-1.99 15.67 -2.98 15.34 -4 15 C-4.6875 12.25 -4.6875 12.25 -5 9 C-3.5625 6.75 -3.5625 6.75 -2 5 C-2 4.34 -2 3.68 -2 3 C-1.34 3 -0.68 3 0 3 C0 2.01 0 1.02 0 0 Z M9 11 C10 13 10 13 10 13 Z M38 29 C39 32 39 32 39 32 Z M38 35 C39 37 39 37 39 37 Z M50 35 C48.80554206 40.39718034 49.07955817 45.41124431 49.4375 50.875 C49.48970703 51.75414063 49.54191406 52.63328125 49.59570312 53.5390625 C49.72447561 55.69307499 49.86141463 57.84659659 50 60 C50.33 60 50.66 60 51 60 C51 51.75 51 43.5 51 35 C50.67 35 50.34 35 50 35 Z M25 36 C26 39 26 39 26 39 Z M29 36 C30 39 30 39 30 39 Z M42 38 C43 41 43 41 43 41 Z M39 39 C40 42 40 42 40 42 Z M28 40 C29 43 29 43 29 43 Z M26 41 C27 44 27 44 27 44 Z M19 42 C20 45 20 45 20 45 Z M40 43 C40.33 43.99 40.66 44.98 41 46 C41.33 45.01 41.66 44.02 42 43 C41.34 43 40.68 43 40 43 Z M48 43 C49 45 49 45 49 45 Z M27 44 C28 47 28 47 28 47 Z M20 46 C21 49 21 49 21 49 Z M34 46 C33.67 46.99 33.34 47.98 33 49 C33.66 49 34.32 49 35 49 C34.67 48.01 34.34 47.02 34 46 Z M47 47 C48 49 48 49 48 49 Z M35 50 C36 52 36 52 36 52 Z M21 51 C22 54 22 54 22 54 Z M32 51 C33 53 33 53 33 53 Z M46 51 C47 54 47 54 47 54 Z M36 54 C37 56 37 56 37 56 Z M31 55 C32 57 32 57 32 57 Z M45 55 C46 58 46 58 46 58 Z " fill="#0771F0" transform="translate(7,28)"/>
<path d="M0 0 C3.55272291 2.11651578 5.48735523 4.14963149 7 8 C7.33 5.36 7.66 2.72 8 0 C10.31 0 12.62 0 15 0 C15 6.6 15 13.2 15 20 C18.63 20 22.26 20 26 20 C26.125 25.75 26.125 25.75 25 28 C22.4374282 28.02710123 19.87514635 28.04688771 17.3125 28.0625 C16.59126953 28.07087891 15.87003906 28.07925781 15.12695312 28.08789062 C11.26422391 28.10552866 7.7698123 27.78772197 4 27 C3.1028125 27.4640625 3.1028125 27.4640625 2.1875 27.9375 C-1.17542741 29.57092189 -4.37926768 29.54342579 -8 29 C-11.12160386 27.88686994 -14.05962861 26.52463702 -17 25 C-17.24791259 17.31470957 -17.32150036 9.55479742 -13 2.9375 C-9.15912245 -0.78335012 -5.12734843 -0.64757169 0 0 Z M-9 8 C-8 11 -8 11 -8 11 Z M-9 16 C-8 18 -8 18 -8 18 Z M-16 18 C-15 20 -15 20 -15 20 Z M5 19 C6 21 6 21 6 21 Z M-7 26 C-7 26.33 -7 26.66 -7 27 C-5.35 27 -3.7 27 -2 27 C-2 26.67 -2 26.34 -2 26 C-3.65 26 -5.3 26 -7 26 Z " fill="#1571D3" transform="translate(96,62)"/>
<path d="M0 0 C2.125 0.9375 2.125 0.9375 4 2 C3.34 2 2.68 2 2 2 C2.99 3.98 3.98 5.96 5 8 C6.32 8 7.64 8 9 8 C10.65 8 12.3 8 14 8 C14 16.25 14 24.5 14 33 C14.99 33.495 14.99 33.495 16 34 C15.01 34 14.02 34 13 34 C13 33.34 13 32.68 13 32 C12.236875 32.70125 11.47375 33.4025 10.6875 34.125 C8.26036892 35.79948707 7.18108324 36.01383275 4.1875 35.78515625 C2.21388554 35.39197524 0.24789119 34.95798692 -1.70703125 34.48046875 C-2.84205078 34.24263672 -2.84205078 34.24263672 -4 34 C-4.495 34.495 -4.495 34.495 -5 35 C-8.72224599 35.29386153 -9.77786243 35.14809171 -13 33 C-15.93970658 29.79898617 -16.76827098 26.76955344 -17.6875 22.5625 C-17.93886719 21.45003906 -18.19023437 20.33757812 -18.44921875 19.19140625 C-18.93784447 16.36014944 -19.19213616 13.86127099 -19 11 C-18.67 10.67 -18.34 10.34 -18 10 C-18.40929986 7.94603274 -18.40929986 7.94603274 -19 6 C-16.1875 4.875 -16.1875 4.875 -13 4 C-12.01 4.66 -11.02 5.32 -10 6 C-9.05125 5.505 -8.1025 5.01 -7.125 4.5 C-4 3 -4 3 -2 3 C-2 2.34 -2 1.68 -2 1 C-1.34 0.67 -0.68 0.34 0 0 Z M2 8 C3 10 3 10 3 10 Z M-11 9 C-10 12 -10 12 -10 12 Z M-7 9 C-6 12 -6 12 -6 12 Z M6 11 C7 14 7 14 7 14 Z M3 12 C4 15 4 15 4 15 Z M-8 13 C-7 16 -7 16 -7 16 Z M-10 14 C-9 17 -9 17 -9 17 Z M-17 15 C-16 18 -16 18 -16 18 Z M4 16 C4.33 16.99 4.66 17.98 5 19 C5.33 18.01 5.66 17.02 6 16 C5.34 16 4.68 16 4 16 Z M12 16 C13 18 13 18 13 18 Z M-9 17 C-8 20 -8 20 -8 20 Z M-16 19 C-15 22 -15 22 -15 22 Z M-2 19 C-2.33 19.99 -2.66 20.98 -3 22 C-2.34 22 -1.68 22 -1 22 C-1.33 21.01 -1.66 20.02 -2 19 Z M11 20 C12 22 12 22 12 22 Z M-1 23 C0 25 0 25 0 25 Z M-15 24 C-14 27 -14 27 -14 27 Z M-4 24 C-3 26 -3 26 -3 26 Z M10 24 C11 27 11 27 11 27 Z M0 27 C1 29 1 29 1 29 Z M-5 28 C-4 30 -4 30 -4 30 Z M9 28 C10 31 10 31 10 31 Z " fill="#0A62CB" transform="translate(43,55)"/>
<path d="M0 0 C1.2375 0.00386719 2.475 0.00773437 3.75 0.01171875 C7 0.3125 7 0.3125 10 2.3125 C10 2.9725 10 3.6325 10 4.3125 C11.051875 4.209375 12.10375 4.10625 13.1875 4 C17 4.3125 17 4.3125 19.8125 6.5625 C21.59299706 8.80083917 22.92824033 10.68181717 24 13.3125 C23.13632813 13.13203125 22.27265625 12.9515625 21.3828125 12.765625 C12.02584671 11.512267 1.9863346 14.88376092 -7 17.3125 C-1.14614264 18.10686478 4.10921927 18.30780056 9.9609375 17.51171875 C14.40436376 17.0775909 17.32949294 17.86549529 21 20.3125 C21.66 19.3225 22.32 18.3325 23 17.3125 C29.13545817 16.64317729 29.13545817 16.64317729 31.9375 18.8125 C32.4634375 19.555 32.4634375 19.555 33 20.3125 C32.505 21.7975 32.505 21.7975 32 23.3125 C29.03 22.9825 26.06 22.6525 23 22.3125 C23 24.9525 23 27.5925 23 30.3125 C21.33441734 28.64691734 19.78106627 27.03680567 18.3125 25.1875 C15.06113266 22.55125621 12.15254179 21.9844572 8 22.3125 C3.03079326 24.65646544 1.0591913 27.27892127 -1 32.3125 C-1.33 32.3125 -1.66 32.3125 -2 32.3125 C-2 29.0125 -2 25.7125 -2 22.3125 C-3.99954746 22.26995644 -6.00041636 22.27169217 -8 22.3125 C-9.66342837 23.97592837 -9.36048097 26.0950709 -9.5625 28.375 C-9.64628906 29.29410156 -9.73007813 30.21320313 -9.81640625 31.16015625 C-9.87699219 31.87042969 -9.93757813 32.58070312 -10 33.3125 C-10.33 32.6525 -10.66 31.9925 -11 31.3125 C-11.66 31.3125 -12.32 31.3125 -13 31.3125 C-13.23074219 30.74660156 -13.46148437 30.18070313 -13.69921875 29.59765625 C-14.68434877 27.38208715 -15.66103202 25.33592445 -17 23.3125 C-19.6147267 22.18434635 -19.6147267 22.18434635 -22 22.3125 C-21.625 20.375 -21.625 20.375 -21 18.3125 C-20.34 17.9825 -19.68 17.6525 -19 17.3125 C-19.66 16.3225 -20.32 15.3325 -21 14.3125 C-17.33333333 10.64583333 -13.66666667 6.97916667 -10 3.3125 C-9.53207031 2.70664062 -9.06414062 2.10078125 -8.58203125 1.4765625 C-5.9199535 -0.48220088 -3.22239466 -0.04363659 0 0 Z M-9.25 4.8125 C-9.8275 5.6375 -10.405 6.4625 -11 7.3125 C-8.24921116 8.22942961 -6.64051087 8.42136083 -3.8125 8.375 C-2.554375 8.354375 -1.29625 8.33375 0 8.3125 C0 7.6525 0 6.9925 0 6.3125 C1.98 5.6525 3.96 4.9925 6 4.3125 C6 3.6525 6 2.9925 6 2.3125 C-2.27593636 1.2976255 -2.27593636 1.2976255 -9.25 4.8125 Z M8 8.3125 C9 11.3125 9 11.3125 9 11.3125 Z M-3 11.3125 C-2 14.3125 -2 14.3125 -2 14.3125 Z M-8 12.3125 C-7 14.3125 -7 14.3125 -7 14.3125 Z M-14 14.3125 C-13 16.3125 -13 16.3125 -13 16.3125 Z " fill="#02193B" transform="translate(81,39.6875)"/>
<path d="M0 0 C0.85400391 0.00064453 1.70800781 0.00128906 2.58789062 0.00195312 C7.84330066 0.03910842 11.59880535 0.75921361 16.375 3.0625 C17.06722656 3.38992187 17.75945312 3.71734375 18.47265625 4.0546875 C20.3125 5.1875 20.3125 5.1875 22.3125 8.1875 C22.27125 9.3425 22.23 10.4975 22.1875 11.6875 C21.90982376 15.24516227 21.90982376 15.24516227 24.3125 17.125 C24.9725 17.475625 25.6325 17.82625 26.3125 18.1875 C25.67441406 18.35765625 25.03632812 18.5278125 24.37890625 18.703125 C23.55261719 18.94546875 22.72632813 19.1878125 21.875 19.4375 C21.05128906 19.66953125 20.22757813 19.9015625 19.37890625 20.140625 C18.69699219 20.48609375 18.01507813 20.8315625 17.3125 21.1875 C16.61237094 23.19569273 16.61237094 23.19569273 16.3125 25.1875 C13.30936252 26.68906874 10.52182478 26.28031204 7.1875 26.25 C5.90617187 26.24097656 4.62484375 26.23195313 3.3046875 26.22265625 C2.31726563 26.21105469 1.32984375 26.19945313 0.3125 26.1875 C0.3125 25.1975 0.3125 24.2075 0.3125 23.1875 C-0.6775 22.8575 -1.6675 22.5275 -2.6875 22.1875 C0.52591369 20.58079316 3.94208968 21.36239145 7.4375 21.625 C8.19160156 21.67720703 8.94570312 21.72941406 9.72265625 21.78320312 C11.5862937 21.91295004 13.44944996 22.04957488 15.3125 22.1875 C14.30413938 20.95482652 14.30413938 20.95482652 12.24609375 21.08984375 C11.01052734 21.10724609 11.01052734 21.10724609 9.75 21.125 C8.92371094 21.13402344 8.09742187 21.14304687 7.24609375 21.15234375 C6.60800781 21.16394531 5.96992187 21.17554687 5.3125 21.1875 C5.3125 20.1975 5.3125 19.2075 5.3125 18.1875 C6.6325 17.5275 7.9525 16.8675 9.3125 16.1875 C8.9825 15.1975 8.6525 14.2075 8.3125 13.1875 C1.0854377 13.82321381 -5.73561259 14.77243492 -12.375 17.8125 C-15.51814521 19.11720179 -17.3511304 19.75944907 -20.6875 19.1875 C-22.68575961 16.19011059 -22.96300398 15.55402492 -22.9375 12.1875 C-22.94265625 11.506875 -22.9478125 10.82625 -22.953125 10.125 C-22.6875 8.1875 -22.6875 8.1875 -20.6875 5.1875 C-19.6975 4.8575 -18.7075 4.5275 -17.6875 4.1875 C-17.0275 3.5275 -16.3675 2.8675 -15.6875 2.1875 C-10.45738258 -0.12348212 -5.60240185 -0.08144272 0 0 Z M-4.6875 4.1875 C-4.6875 4.5175 -4.6875 4.8475 -4.6875 5.1875 C-1.7175 5.1875 1.2525 5.1875 4.3125 5.1875 C4.3125 4.8575 4.3125 4.5275 4.3125 4.1875 C1.3425 4.1875 -1.6275 4.1875 -4.6875 4.1875 Z M-5.6875 7.1875 C-5.6875 7.5175 -5.6875 7.8475 -5.6875 8.1875 C-2.0575 8.1875 1.5725 8.1875 5.3125 8.1875 C5.3125 7.8575 5.3125 7.5275 5.3125 7.1875 C1.6825 7.1875 -1.9475 7.1875 -5.6875 7.1875 Z M-3.6875 11.1875 C-3.6875 11.5175 -3.6875 11.8475 -3.6875 12.1875 C-1.3775 12.1875 0.9325 12.1875 3.3125 12.1875 C3.3125 11.8575 3.3125 11.5275 3.3125 11.1875 C1.0025 11.1875 -1.3075 11.1875 -3.6875 11.1875 Z " fill="#0157C9" transform="translate(73.6875,13.8125)"/>
<path d="M0 0 C2.86767578 -0.1640625 2.86767578 -0.1640625 6 0 C8.1171875 2.625 8.1171875 2.625 9.875 6 C10.47054687 7.11375 11.06609375 8.2275 11.6796875 9.375 C12.33324219 10.674375 12.33324219 10.674375 13 12 C13.33 8.04 13.66 4.08 14 0 C15.98 0 17.96 0 20 0 C20.19581346 4.47884439 20.3802636 8.95808426 20.5625 13.4375 C20.61857422 14.71689453 20.67464844 15.99628906 20.73242188 17.31445312 C20.78076172 18.52939453 20.82910156 19.74433594 20.87890625 20.99609375 C20.9260376 22.12200928 20.97316895 23.2479248 21.02172852 24.40795898 C21 27 21 27 20 28 C16.7537491 27.81659599 13.53210264 27.47830886 10.296875 27.15625 C7.06210434 26.86320638 7.06210434 26.86320638 4.203125 27.59375 C3.47609375 27.7278125 2.7490625 27.861875 2 28 C0 26 0 26 -0.22705078 23.38623047 C-0.21657715 22.30744629 -0.20610352 21.22866211 -0.1953125 20.1171875 C-0.18886719 18.95058594 -0.18242188 17.78398438 -0.17578125 16.58203125 C-0.15902344 15.35871094 -0.14226563 14.13539062 -0.125 12.875 C-0.11597656 11.64394531 -0.10695312 10.41289063 -0.09765625 9.14453125 C-0.07402548 6.09616185 -0.04108054 3.04817618 0 0 Z " fill="#0E6AD1" transform="translate(58,62)"/>
<path d="M0 0 C-2.91765 1.9451 -4.62537285 2.45276317 -8 3 C-2.14614264 3.79436478 3.10921927 3.99530056 8.9609375 3.19921875 C13.40436376 2.7650909 16.32949294 3.55299529 20 6 C20.66 5.01 21.32 4.02 22 3 C28.13545817 2.33067729 28.13545817 2.33067729 30.9375 4.5 C31.288125 4.995 31.63875 5.49 32 6 C31.67 6.99 31.34 7.98 31 9 C28.03 8.67 25.06 8.34 22 8 C22 10.64 22 13.28 22 16 C20.33441734 14.33441734 18.78106627 12.72430567 17.3125 10.875 C14.06113266 8.23875621 11.15254179 7.6719572 7 8 C2.03079326 10.34396544 0.0591913 12.96642127 -2 18 C-2.33 18 -2.66 18 -3 18 C-3 14.7 -3 11.4 -3 8 C-4.99954746 7.95745644 -7.00041636 7.95919217 -9 8 C-10.66342837 9.66342837 -10.36048097 11.7825709 -10.5625 14.0625 C-10.64628906 14.98160156 -10.73007813 15.90070313 -10.81640625 16.84765625 C-10.87699219 17.55792969 -10.93757813 18.26820312 -11 19 C-11.33 18.34 -11.66 17.68 -12 17 C-12.66 17 -13.32 17 -14 17 C-14.23074219 16.43410156 -14.46148437 15.86820313 -14.69921875 15.28515625 C-15.68434877 13.06958715 -16.66103202 11.02342445 -18 9 C-20.6147267 7.87184635 -20.6147267 7.87184635 -23 8 C-22.67 6.68 -22.34 5.36 -22 4 C-21.21496094 3.80664062 -20.42992187 3.61328125 -19.62109375 3.4140625 C-18.57050781 3.15367188 -17.51992187 2.89328125 -16.4375 2.625 C-14.7978125 2.21894531 -14.7978125 2.21894531 -13.125 1.8046875 C-10.70017013 1.18029381 -8.32424813 0.50100265 -5.9375 -0.25 C-3 -1 -3 -1 0 0 Z " fill="#020102" transform="translate(82,54)"/>
<path d="M0 0 C3.09851777 1.8074687 4.59108071 2.86760812 5.8125 6.25 C5.874375 6.8275 5.93625 7.405 6 8 C4.02 8.66 2.04 9.32 0 10 C-0.66 9.01 -1.32 8.02 -2 7 C-4.54207971 6.66656449 -4.54207971 6.66656449 -7 7 C-8.25173779 8.03033389 -8.25173779 8.03033389 -8.1328125 10.25 C-8.13023438 11.1575 -8.12765625 12.065 -8.125 13 C-8.12757812 13.9075 -8.13015625 14.815 -8.1328125 15.75 C-8.25173779 17.96966611 -8.25173779 17.96966611 -7 19 C-4.54207971 19.33343551 -4.54207971 19.33343551 -2 19 C-1.34 18.01 -0.68 17.02 0 16 C1.98 16.33 3.96 16.66 6 17 C5.18820936 20.04421489 4.47032662 22.43560806 2.4375 24.875 C-1.35146153 26.62375147 -4.90570578 26.65801157 -9 26 C-12.09098636 24.22432699 -13.52950156 22.80656876 -15.3125 19.75 C-16.5973759 14.61049639 -16.59789081 10.58441066 -14.75 5.6875 C-10.90042935 -0.22434065 -6.82510537 -1.10710265 0 0 Z " fill="#1172DE" transform="translate(96,62)"/>
<path d="M0 0 C-0.33535107 6.06985428 -4.64321213 8.83888469 -8.87109375 12.62695312 C-10.72084315 14.30972809 -10.72084315 14.30972809 -13 17 C-12.60229704 19.06462345 -12.60229704 19.06462345 -12 21 C-13.375 22.625 -13.375 22.625 -15 24 C-15.33 24.66 -15.66 25.32 -16 26 C-18.06640625 26.6328125 -18.06640625 26.6328125 -20.5625 27.125 C-21.38878906 27.29257813 -22.21507812 27.46015625 -23.06640625 27.6328125 C-23.70449219 27.75398438 -24.34257813 27.87515625 -25 28 C-26.5625 26.3125 -26.5625 26.3125 -28 24 C-27.74454157 20.59388766 -26.6483487 17.96702767 -25 15 C-25.66 14.01 -26.32 13.02 -27 12 C-26 11 -26 11 -24.0390625 10.90234375 C-23.24242187 10.91394531 -22.44578125 10.92554688 -21.625 10.9375 C-20.43777344 10.95103516 -20.43777344 10.95103516 -19.2265625 10.96484375 C-18.49179687 10.97644531 -17.75703125 10.98804688 -17 11 C-13.77688417 11.34005612 -13.77688417 11.34005612 -11.40625 8.59375 C-10.42998932 7.56960733 -9.4615005 6.53801248 -8.5 5.5 C-3.40540541 0 -3.40540541 0 0 0 Z " fill="#5196E0" transform="translate(74,37)"/>
<path d="M0 0 C0 0.66 0 1.32 0 2 C-0.66 2 -1.32 2 -2 2 C-2 2.99 -2 3.98 -2 5 C-1.34 5 -0.68 5 0 5 C0 5.66 0 6.32 0 7 C-1.57421875 8.55078125 -1.57421875 8.55078125 -3.6875 10.3125 C-6.95300964 13.08499308 -10.01915985 15.92600859 -13 19 C-16.21043882 17.61811547 -18.04936365 16.07578097 -20.25 13.375 C-20.77078125 12.74335937 -21.2915625 12.11171875 -21.828125 11.4609375 C-22.21484375 10.97882812 -22.6015625 10.49671875 -23 10 C-22.360625 9.87625 -21.72125 9.7525 -21.0625 9.625 C-20.381875 9.41875 -19.70125 9.2125 -19 9 C-18.67 8.34 -18.34 7.68 -18 7 C-20.31 7.66 -22.62 8.32 -25 9 C-26.5625 7.75 -26.5625 7.75 -28 6 C-27.6875 3.8125 -27.6875 3.8125 -27 2 C-27 2.66 -27 3.32 -27 4 C-21.21408489 4.10477512 -15.70690634 3.99250545 -10 3 C-10 2.34 -10 1.68 -10 1 C-6.61981469 -0.04005702 -3.5219721 -0.08004482 0 0 Z M-8 4 C-7 6 -7 6 -7 6 Z M-14 6 C-13 8 -13 8 -13 8 Z " fill="#051635" transform="translate(130,36)"/>
<path d="M0 0 C2.86724686 0.57344937 3.8614515 0.8614515 6 3 C9.59679066 2.67673447 9.59679066 2.67673447 13 2 C14.59412284 5.18824568 14.10174735 8.62896662 14.0625 12.125 C14.05798828 12.87910156 14.05347656 13.63320312 14.04882812 14.41015625 C14.03703499 16.27347127 14.01909942 18.13674555 14 20 C7.70612892 22.69737332 2.17360799 24.50406154 -4.50390625 22.09765625 C-6.69990513 21.1319666 -8.85431268 20.07284366 -11 19 C-11 16.03 -11 13.06 -11 10 C-9 12 -9 12 -8.25 14.4375 C-7.15095938 17.20702166 -7.15095938 17.20702166 -4.375 18.875 C0.78728651 20.59576217 4.83666366 19.72111211 10 18 C10 17.01 10 16.02 10 15 C10.66 15 11.32 15 12 15 C12 14.01 12 13.02 12 12 C10.68 11.34 9.36 10.68 8 10 C7.278125 10.680625 6.55625 11.36125 5.8125 12.0625 C3 14 3 14 0.1875 13.75 C-0.8953125 13.37875 -0.8953125 13.37875 -2 13 C-3.35384615 5.73846154 -3.35384615 5.73846154 -1.5625 2 C-1.046875 1.34 -0.53125 0.68 0 0 Z " fill="#020204" transform="translate(90,68)"/>
<path d="M0 0 C0.85400391 0.00064453 1.70800781 0.00128906 2.58789062 0.00195312 C7.84330066 0.03910842 11.59880535 0.75921361 16.375 3.0625 C17.06722656 3.38992187 17.75945312 3.71734375 18.47265625 4.0546875 C20.3125 5.1875 20.3125 5.1875 22.3125 8.1875 C22.3125 9.1775 22.3125 10.1675 22.3125 11.1875 C17.9796643 10.62842443 14.40572641 8.96801574 10.49609375 7.125 C2.24655396 3.58315823 -5.02915769 4.94518605 -13.15625 8.1640625 C-13.9915625 8.50179688 -14.826875 8.83953125 -15.6875 9.1875 C-17.68409018 9.86431023 -19.68214622 10.53711499 -21.6875 11.1875 C-22.0175 10.1975 -22.3475 9.2075 -22.6875 8.1875 C-20.6875 5.1875 -20.6875 5.1875 -17.6875 4.1875 C-17.0275 3.5275 -16.3675 2.8675 -15.6875 2.1875 C-10.45738258 -0.12348212 -5.60240185 -0.08144272 0 0 Z " fill="#014EB6" transform="translate(73.6875,13.8125)"/>
<path d="M0 0 C2.64 0 5.28 0 8 0 C7.979375 0.804375 7.95875 1.60875 7.9375 2.4375 C7.70366379 4.93354885 7.70366379 4.93354885 9 6 C9.47029967 12.34904554 9.47029967 12.34904554 7.76953125 14.703125 C5.52747678 16.34630841 4.19593434 16.40226624 1.4375 16.375 C0.65246094 16.38273437 -0.13257813 16.39046875 -0.94140625 16.3984375 C-1.62074219 16.26695313 -2.30007812 16.13546875 -3 16 C-5 13 -5 13 -4.75 11.1875 C-4.5025 10.465625 -4.255 9.74375 -4 9 C-3.649375 7.9275 -3.29875 6.855 -2.9375 5.75 C-2.628125 4.8425 -2.31875 3.935 -2 3 C-1.34 3 -0.68 3 0 3 C0 2.01 0 1.02 0 0 Z " fill="#5197DD" transform="translate(7,28)"/>
<path d="M0 0 C3.125 -0.1875 3.125 -0.1875 6 0 C6.28875 0.763125 6.5775 1.52625 6.875 2.3125 C7.96269013 5.15029308 7.96269013 5.15029308 10 8 C9.79362145 10.751714 9.3262715 12.50200666 7.8125 14.8125 C5.20638339 16.51995571 3.0400645 16.20267097 0 16 C-2.15384835 12.4676887 -3.02538344 10.49920756 -2.8125 6.3125 C-2 3 -2 3 0 0 Z " fill="#549DE8" transform="translate(134,28)"/>
<path d="M0 0 C6.53551913 0.75409836 6.53551913 0.75409836 9.125 2.125 C11.68049102 3.31756248 13.30353158 2.56767756 16 2 C16.66 2.66 17.32 3.32 18 4 C17.36191406 4.17015625 16.72382812 4.3403125 16.06640625 4.515625 C15.24011719 4.75796875 14.41382812 5.0003125 13.5625 5.25 C12.73878906 5.48203125 11.91507813 5.7140625 11.06640625 5.953125 C10.38449219 6.29859375 9.70257813 6.6440625 9 7 C8.29987094 9.00819273 8.29987094 9.00819273 8 11 C4.99686252 12.50156874 2.20932478 12.09281204 -1.125 12.0625 C-2.40632813 12.05347656 -3.68765625 12.04445313 -5.0078125 12.03515625 C-6.48894531 12.01775391 -6.48894531 12.01775391 -8 12 C-8 11.01 -8 10.02 -8 9 C-8.99 8.67 -9.98 8.34 -11 8 C-7.78658631 6.39329316 -4.37041032 7.17489145 -0.875 7.4375 C0.25615234 7.51581055 0.25615234 7.51581055 1.41015625 7.59570312 C3.2737937 7.72545004 5.13694996 7.86207488 7 8 C5.99163938 6.76732652 5.99163938 6.76732652 3.93359375 6.90234375 C2.69802734 6.91974609 2.69802734 6.91974609 1.4375 6.9375 C0.61121094 6.94652344 -0.21507813 6.95554687 -1.06640625 6.96484375 C-2.02353516 6.98224609 -2.02353516 6.98224609 -3 7 C-3 6.01 -3 5.02 -3 4 C-1.68 3.34 -0.36 2.68 1 2 C0.67 1.34 0.34 0.68 0 0 Z " fill="#1259B0" transform="translate(82,28)"/>
<path d="M0 0 C0.33 0 0.66 0 1 0 C1 6.27 1 12.54 1 19 C1.66 19.33 2.32 19.66 3 20 C2.01 20 1.02 20 0 20 C0 19.34 0 18.68 0 18 C-0.763125 18.70125 -1.52625 19.4025 -2.3125 20.125 C-4.73963108 21.79948707 -5.81891676 22.01383275 -8.8125 21.78515625 C-10.78611446 21.39197524 -12.75210881 20.95798692 -14.70703125 20.48046875 C-15.84205078 20.24263672 -15.84205078 20.24263672 -17 20 C-17.33 20.33 -17.66 20.66 -18 21 C-19.66617115 21.04063832 -21.33388095 21.042721 -23 21 C-22.21625 20.34 -21.4325 19.68 -20.625 19 C-17.3549438 15.26279291 -16.89790231 12.81602145 -16 8 C-15.34 8 -14.68 8 -14 8 C-13.01 11.3 -12.02 14.6 -11 18 C-9.35 18.33 -7.7 18.66 -6 19 C-3.23827643 16.23827643 -3.09257227 13.20861023 -2.4375 9.5 C-1.11121324 2.22242647 -1.11121324 2.22242647 0 0 Z " fill="#010102" transform="translate(56,69)"/>
<path d="M0 0 C2.125 0.9375 2.125 0.9375 4 2 C3.34 2 2.68 2 2 2 C3.53604696 5.14191424 5.05731159 8.08596738 7 11 C6.625 13.6875 6.625 13.6875 6 16 C5.34 16 4.68 16 4 16 C2 10.25 2 10.25 2 8 C-0.90073181 7.32198966 -0.90073181 7.32198966 -4 7 C-6.19797403 9.19797403 -6.45897517 10.17546145 -7.125 13.125 C-7.41375 14.40375 -7.7025 15.6825 -8 17 C-10.50298434 14.06171403 -11.46930939 11.82097239 -12 8 C-12.598125 7.855625 -13.19625 7.71125 -13.8125 7.5625 C-15.56150404 7.1127561 -17.28677023 6.57107659 -19 6 C-16.1875 4.875 -16.1875 4.875 -13 4 C-12.01 4.66 -11.02 5.32 -10 6 C-9.05125 5.505 -8.1025 5.01 -7.125 4.5 C-4 3 -4 3 -2 3 C-2 2.34 -2 1.68 -2 1 C-1.34 0.67 -0.68 0.34 0 0 Z " fill="#020102" transform="translate(43,55)"/>
<path d="M0 0 C-0.33535107 6.06985428 -4.64321213 8.83888469 -8.87109375 12.62695312 C-10.72084315 14.30972809 -10.72084315 14.30972809 -13 17 C-12.72974954 19.15062284 -12.72974954 19.15062284 -12 21 C-12.99 21.33 -13.98 21.66 -15 22 C-16.5625 20.25 -16.5625 20.25 -18 18 C-17.61443272 14.61490823 -16.30720364 12.92298217 -13.9453125 10.546875 C-13.33042969 9.928125 -12.71554688 9.309375 -12.08203125 8.671875 C-11.43621094 8.03765625 -10.79039063 7.4034375 -10.125 6.75 C-9.48691406 6.1003125 -8.84882812 5.450625 -8.19140625 4.78125 C-7.57394531 4.16765625 -6.95648438 3.5540625 -6.3203125 2.921875 C-5.75586426 2.36081055 -5.19141602 1.79974609 -4.60986328 1.22167969 C-3 0 -3 0 0 0 Z " fill="#0765E1" transform="translate(74,37)"/>
<path d="M0 0 C1 1 1 1 1.25 4.375 C1 8 1 8 -0.125 9.9375 C-2.88980433 11.50422245 -4.88188517 11.38976435 -8 11 C-9.875 9.5 -9.875 9.5 -11 8 C-10.3125 4.625 -10.3125 4.625 -9 1 C-5.77140649 -1.03911169 -3.5612731 -1.39907157 0 0 Z " fill="#5B9FE5" transform="translate(100,33)"/>
<path d="M0 0 C1.66506701 0.67065199 3.33128619 1.33847417 5 2 C4.67 2.99 4.34 3.98 4 5 C3.18015625 4.65066406 2.3603125 4.30132812 1.515625 3.94140625 C0.43796875 3.48636719 -0.6396875 3.03132813 -1.75 2.5625 C-2.81734375 2.11003906 -3.8846875 1.65757813 -4.984375 1.19140625 C-14.10513922 -2.41200448 -22.50828713 -1.72544243 -31.5390625 1.91015625 C-34.41898688 3.18555133 -37.22910086 4.50221668 -40 6 C-40 4.68 -40 3.36 -40 2 C-37.67784911 0.96244322 -35.35113836 -0.03162761 -33 -1 C-32.33613281 -1.28617188 -31.67226563 -1.57234375 -30.98828125 -1.8671875 C-20.2716855 -6.02704907 -10.2873955 -4.51722174 0 0 Z " fill="#040203" transform="translate(91,23)"/>
<path d="M0 0 C4.95 0 9.9 0 15 0 C15 1.32 15 2.64 15 4 C13.68 4 12.36 4 11 4 C11 4.66 11 5.32 11 6 C10.39671875 6.03738281 9.7934375 6.07476562 9.171875 6.11328125 C4.42080315 6.50409522 1.74718427 6.92195578 -2 10 C-4.75 10.1875 -4.75 10.1875 -7 10 C-5 8 -5 8 -2.375 6.6875 C-1.199375 5.8521875 -1.199375 5.8521875 0 5 C0 3.35 0 1.7 0 0 Z " fill="#0148B0" transform="translate(16,36)"/>
<path d="M0 0 C6.73890104 0.37438339 12.35711554 2.19407793 18 6 C18.33 6.99 18.66 7.98 19 9 C14.42592095 9.59020375 11.31559763 7.92357375 7.29296875 6.0234375 C4.25089884 4.66564821 1.22364862 3.82305922 -2 3 C-1.34 2.01 -0.68 1.02 0 0 Z " fill="#005BD0" transform="translate(77,22)"/>
<path d="M0 0 C0 0.66 0 1.32 0 2 C-0.66 2 -1.32 2 -2 2 C-2.33 2.99 -2.66 3.98 -3 5 C-3.66 4.34 -4.32 3.68 -5 3 C-5.60585937 3.18175781 -6.21171875 3.36351562 -6.8359375 3.55078125 C-15.91796875 6.27539062 -15.91796875 6.27539062 -25 9 C-26.51953125 7.63671875 -26.51953125 7.63671875 -28 6 C-27.6875 3.8125 -27.6875 3.8125 -27 2 C-27 2.66 -27 3.32 -27 4 C-21.21408489 4.10477512 -15.70690634 3.99250545 -10 3 C-10 2.34 -10 1.68 -10 1 C-6.61981469 -0.04005702 -3.5219721 -0.08004482 0 0 Z " fill="#070203" transform="translate(130,36)"/>
<path d="M0 0 C0.66 0 1.32 0 2 0 C2.30292969 0.71027344 2.60585937 1.42054687 2.91796875 2.15234375 C3.33691406 3.07144531 3.75585938 3.99054688 4.1875 4.9375 C4.59355469 5.85402344 4.99960938 6.77054687 5.41796875 7.71484375 C6.80333338 10.22196198 6.80333338 10.22196198 9.48828125 10.75390625 C10.31714844 10.83511719 11.14601563 10.91632813 12 11 C12.99 11.33 13.98 11.66 15 12 C14.67 12.33 14.34 12.66 14 13 C10.7537491 12.81659599 7.53210264 12.47830886 4.296875 12.15625 C1.27751232 12.01315224 -1.08866015 12.25574771 -4 13 C-3.34 12.525625 -2.68 12.05125 -2 11.5625 C0.89658976 7.85124437 0.34969446 4.54602793 0 0 Z " fill="#010102" transform="translate(64,77)"/>
<path d="M0 0 C0.33 0.66 0.66 1.32 1 2 C-1.47800115 5.09750144 -2.70892154 5.94573113 -6.6875 6.6875 C-12.01155834 7.91678099 -14.89068512 11.213618 -18.5 15.125 C-19.13164063 15.78371094 -19.76328125 16.44242188 -20.4140625 17.12109375 C-21.95735273 18.73453354 -23.48479581 20.36023223 -25 22 C-25.99 21.67 -26.98 21.34 -28 21 C-27.30777344 20.41605469 -27.30777344 20.41605469 -26.6015625 19.8203125 C-21.57827225 15.51179873 -17.03954332 10.94039547 -12.58984375 6.0390625 C-9.38504649 3.51582846 -7.00313409 3.37293348 -3 3 C-1.07716915 1.58408173 -1.07716915 1.58408173 0 0 Z " fill="#040507" transform="translate(144,40)"/>
<path d="M0 0 C2.96175123 0.61277612 4.38058783 1.25372522 7 3 C9.64632287 2.6878236 9.64632287 2.6878236 12 2 C12 2.99 12 3.98 12 5 C11.01 5.33 10.02 5.66 9 6 C9.33 6.66 9.66 7.32 10 8 C3.6 7.50769231 3.6 7.50769231 0.5625 4.9375 C-0.2109375 3.9784375 -0.2109375 3.9784375 -1 3 C-0.67 2.01 -0.34 1.02 0 0 Z " fill="#0E6BE6" transform="translate(99,41)"/>
<path d="M0 0 C6.52307692 0.61538462 6.52307692 0.61538462 8.9375 2.5625 C9.288125 3.036875 9.63875 3.51125 10 4 C8.0373772 6.04795423 6.5722693 6.94976638 3.73046875 7.19921875 C1.48045617 7.18858877 -0.75385562 7.12958525 -3 7 C-3 6.01 -3 5.02 -3 4 C-1.68 3.34 -0.36 2.68 1 2 C0.67 1.34 0.34 0.68 0 0 Z " fill="#010102" transform="translate(82,28)"/>
<path d="M0 0 C3.60244452 0.30878096 4.99345998 0.99447732 7.8125 3.375 C10 6 10 6 10 9 C4.93001981 8.34580901 0.58009223 6.1453591 -4 4 C-3.01 3.67 -2.02 3.34 -1 3 C-0.67 2.01 -0.34 1.02 0 0 Z " fill="#066CD4" transform="translate(86,16)"/>
<path d="M0 0 C2.22678932 1.11339466 3.06214387 2.14603676 4.625 4.0625 C8.17130959 8.29349312 12.05415254 12.14428611 16 16 C11.68381834 16 10.07210341 13.86729652 7 11 C7 10.34 7 9.68 7 9 C6.34 9 5.68 9 5 9 C5 8.34 5 7.68 5 7 C3.35 7 1.7 7 0 7 C-0.38133299 5.0085944 -0.71325582 3.00720923 -1 1 C-0.67 0.67 -0.34 0.34 0 0 Z " fill="#0459CC" transform="translate(32,35)"/>
<path d="M0 0 C1.37562854 1.28965176 2.70766393 2.62689293 4 4 C4 4.66 4 5.32 4 6 C2.71222656 5.72349609 2.71222656 5.72349609 1.3984375 5.44140625 C-2.16904739 4.97804327 -4.85403352 5.27242855 -8.375 5.9375 C-9.43460937 6.13214844 -10.49421875 6.32679687 -11.5859375 6.52734375 C-12.38257812 6.68332031 -13.17921875 6.83929688 -14 7 C-13.67 6.01 -13.34 5.02 -13 4 C-12.195625 3.87625 -11.39125 3.7525 -10.5625 3.625 C-9.716875 3.41875 -8.87125 3.2125 -8 3 C-7.67 2.34 -7.34 1.68 -7 1 C-6.1028125 1.309375 -6.1028125 1.309375 -5.1875 1.625 C-2.71549154 2.30671915 -2.71549154 2.30671915 0 0 Z " fill="#020104" transform="translate(101,47)"/>
<path d="M0 0 C-3.23404122 1.72816837 -6.33952804 2.59526674 -9.9140625 3.42578125 C-11.96255702 3.98969266 -13.7637788 4.73034363 -15.6875 5.625 C-18.8197561 6.92518178 -20.67229922 7.30251825 -24 7 C-16.69280162 1.17759764 -9.22931781 -0.70692647 0 0 Z " fill="#010101" transform="translate(77,26)"/>
<path d="M0 0 C2.31 0 4.62 0 7 0 C6.67 0.99 6.34 1.98 6 3 C4.68 3.33 3.36 3.66 2 4 C1.67 10.27 1.34 16.54 1 23 C0.67 23 0.34 23 0 23 C0 15.41 0 7.82 0 0 Z " fill="#0861C1" transform="translate(104,62)"/>
<path d="M0 0 C0 0.66 0 1.32 0 2 C-1.72265625 3.48046875 -1.72265625 3.48046875 -4.0625 5.1875 C-8.42521121 8.47333946 -12.25261424 12.03572374 -16 16 C-16.66 15.67 -17.32 15.34 -18 15 C-15.57473278 12.48787748 -13.13287993 9.99253602 -10.6875 7.5 C-9.65206055 6.42685547 -9.65206055 6.42685547 -8.59570312 5.33203125 C-7.59506836 4.31689453 -7.59506836 4.31689453 -6.57421875 3.28125 C-5.96151123 2.65283203 -5.34880371 2.02441406 -4.7175293 1.37695312 C-3 0 -3 0 0 0 Z " fill="#0452CC" transform="translate(74,37)"/>
<path d="M0 0 C1.23556641 0.01740234 1.23556641 0.01740234 2.49609375 0.03515625 C3.32238281 0.04417969 4.14867187 0.05320313 5 0.0625 C5.63808594 0.07410156 6.27617188 0.08570313 6.93359375 0.09765625 C6.93359375 1.08765625 6.93359375 2.07765625 6.93359375 3.09765625 C3.93359375 5.09765625 3.93359375 5.09765625 1.37109375 4.91015625 C-1.06640625 4.09765625 -1.06640625 4.09765625 -3.06640625 1.09765625 C-2.06640625 0.09765625 -2.06640625 0.09765625 0 0 Z " fill="#030305" transform="translate(50.06640625,47.90234375)"/>
<path d="M0 0 C1.37478516 0.01740234 1.37478516 0.01740234 2.77734375 0.03515625 C3.69644531 0.04417969 4.61554687 0.05320313 5.5625 0.0625 C6.27277344 0.07410156 6.98304687 0.08570313 7.71484375 0.09765625 C7.71484375 0.75765625 7.71484375 1.41765625 7.71484375 2.09765625 C7.1115625 2.13503906 6.50828125 2.17242187 5.88671875 2.2109375 C1.1356469 2.60175147 -1.53797198 3.01961203 -5.28515625 6.09765625 C-8.03515625 6.28515625 -8.03515625 6.28515625 -10.28515625 6.09765625 C-8.12661386 3.93911386 -5.90494033 2.64265712 -3.28515625 1.09765625 C-2.28515625 0.09765625 -2.28515625 0.09765625 0 0 Z " fill="#010001" transform="translate(19.28515625,39.90234375)"/>
<path d="M0 0 C1.98 0 3.96 0 6 0 C6 0.66 6 1.32 6 2 C4.68 2.33 3.36 2.66 2 3 C1.67 9.6 1.34 16.2 1 23 C0.67 23 0.34 23 0 23 C0 15.41 0 7.82 0 0 Z " fill="#0357BA" transform="translate(58,62)"/>
<path d="M0 0 C-0.33 0.99 -0.66 1.98 -1 3 C-1.66 3 -2.32 3 -3 3 C-3 3.66 -3 4.32 -3 5 C-4.8125 5.625 -4.8125 5.625 -7 6 C-7.99 5.34 -8.98 4.68 -10 4 C-9.67 3.01 -9.34 2.02 -9 1 C-5.846632 0.29925156 -3.27275026 0 0 0 Z " fill="#0045A6" transform="translate(89,49)"/>
<path d="M0 0 C1.32 0 2.64 0 4 0 C4.66 1.98 5.32 3.96 6 6 C2.66666667 7.66666667 -0.66666667 9.33333333 -4 11 C-2.02 8.69 -0.04 6.38 2 4 C1.34 3.67 0.68 3.34 0 3 C0 2.01 0 1.02 0 0 Z " fill="#0A68E6" transform="translate(128,38)"/>
<path d="M0 0 C-1.56269705 4.21928204 -4.62048095 6.18373412 -8 9 C-9.37254588 11.14980497 -9.37254588 11.14980497 -10 13 C-10.99 12.67 -11.98 12.34 -13 12 C-2.93659942 0 -2.93659942 0 0 0 Z " fill="#08060A" transform="translate(73,43)"/>
<path d="M0 0 C-0.33 1.32 -0.66 2.64 -1 4 C-4.375 4.125 -4.375 4.125 -8 4 C-8.66 3.34 -9.32 2.68 -10 2 C-7.85732894 -2.28534211 -3.95706306 -0.79141261 0 0 Z " fill="#0157C2" transform="translate(86,15)"/>
<path d="M0 0 C1.49080078 0.02707031 1.49080078 0.02707031 3.01171875 0.0546875 C3.77097656 0.07789062 4.53023437 0.10109375 5.3125 0.125 C3.3125 3.125 3.3125 3.125 0.3125 3.9375 C-0.6775 3.999375 -1.6675 4.06125 -2.6875 4.125 C-3.3475 3.465 -4.0075 2.805 -4.6875 2.125 C-6.0075 2.125 -7.3275 2.125 -8.6875 2.125 C-5.26655758 -0.15562828 -4.00562778 -0.09425007 0 0 Z " fill="#0051BA" transform="translate(71.6875,21.875)"/>
<path d="M0 0 C3.69496329 1.23165443 4.35395945 2.88224921 6.1484375 6.2109375 C7.05420937 8.1138894 7.66653644 9.91585276 8 12 C4.3392481 10.77974937 4.07660559 9.873509 2.3125 6.5625 C1.87550781 5.75941406 1.43851562 4.95632812 0.98828125 4.12890625 C0 2 0 2 0 0 Z " fill="#1B7BEE" transform="translate(65,75)"/>
<path d="M0 0 C4.01288641 6.01932961 5.46715232 12.83699771 5 20 C2.38158129 17.38158129 2.18149063 15.28412235 1.375 11.6875 C1.11460938 10.55699219 0.85421875 9.42648438 0.5859375 8.26171875 C0.0732561 5.40779229 -0.11914675 2.88660093 0 0 Z " fill="#020000" transform="translate(24,66)"/>
<path d="M0 0 C0.66 0.33 1.32 0.66 2 1 C-0.97 3.97 -3.94 6.94 -7 10 C-7.66 9.67 -8.32 9.34 -9 9 C-7.48328036 4.44984107 -3.83108947 2.49942736 0 0 Z " fill="#0B78FB" transform="translate(131,44)"/>
<path d="M0 0 C2.375 0.25 2.375 0.25 5 1 C6.3125 3.0625 6.3125 3.0625 7 5 C3.28400809 5.20086443 2.22791555 5.1519437 -1 3 C-0.67 2.01 -0.34 1.02 0 0 Z " fill="#067CF6" transform="translate(89,26)"/>
<path d="M0 0 C2.64 0 5.28 0 8 0 C7.67 1.32 7.34 2.64 7 4 C6.2575 3.814375 5.515 3.62875 4.75 3.4375 C2.05009037 3.00796892 0.55368923 3.14877026 -2 4 C-1.34 3.67 -0.68 3.34 0 3 C0 2.01 0 1.02 0 0 Z " fill="#000000" transform="translate(7,28)"/>
<path d="M0 0 C2.37948772 0.17625835 3.70225849 0.69719773 5.37890625 2.40234375 C6.62115486 3.90649092 7.81376056 5.45129851 9 7 C5.36891547 6.69740962 4.21859619 6.2363202 1.6875 3.5 C0 1 0 1 0 0 Z " fill="#1A83F9" transform="translate(81,81)"/>
<path d="M0 0 C0.721875 0.515625 1.44375 1.03125 2.1875 1.5625 C5.4195366 3.21442982 6.61608307 3.06351675 10 2 C10 2.99 10 3.98 10 5 C7.36 5 4.72 5 2 5 C1.34 3.35 0.68 1.7 0 0 Z " fill="#0358CE" transform="translate(101,41)"/>
<path d="M0 0 C-0.33 0.99 -0.66 1.98 -1 3 C-4.0625 4.1875 -4.0625 4.1875 -7 5 C-7.33 4.01 -7.66 3.02 -8 2 C-4.77208445 -0.1519437 -3.71599191 -0.20086443 0 0 Z " fill="#015DDC" transform="translate(59,27)"/>
<path d="M0 0 C1.32 0 2.64 0 4 0 C4 0.66 4 1.32 4 2 C4.66 2 5.32 2 6 2 C6.99 3.485 6.99 3.485 8 5 C7.67 5.99 7.34 6.98 7 8 C5.83035398 6.8572081 4.66435444 5.71068285 3.5 4.5625 C2.8503125 3.92441406 2.200625 3.28632812 1.53125 2.62890625 C0 1 0 1 0 0 Z " fill="#027DF3" transform="translate(33,42)"/>
<path d="M0 0 C-0.99 1.32 -1.98 2.64 -3 4 C-5.475 3.01 -5.475 3.01 -8 2 C-8 1.34 -8 0.68 -8 0 C-5.13822943 -1.43088528 -3.06624227 -0.59991697 0 0 Z " fill="#0264E7" transform="translate(90,25)"/>
<path d="M0 0 C1.98 0 3.96 0 6 0 C6.33 0.99 6.66 1.98 7 3 C6.2575 2.979375 5.515 2.95875 4.75 2.9375 C2.29537721 2.99328688 0.33890739 3.3069904 -2 4 C-1.34 2.68 -0.68 1.36 0 0 Z " fill="#000000" transform="translate(134,28)"/>
<path d="M0 0 C0.66 0.33 1.32 0.66 2 1 C2.625 3.0625 2.625 3.0625 3 5 C2.01 5.33 1.02 5.66 0 6 C-0.99 4.35 -1.98 2.7 -3 1 C-2.01 0.67 -1.02 0.34 0 0 Z " fill="#0C63D3" transform="translate(59,53)"/>
<path d="M0 0 C3 1 3 1 3 1 Z " fill="#010001" transform="translate(17,34)"/>
<path d="M0 0 C2 1 2 1 2 1 Z " fill="#010000" transform="translate(70,13)"/>
<path d="" fill="#010101" transform="translate(0,0)"/>
<path d="" fill="#010102" transform="translate(0,0)"/>
<path d="" fill="#000000" transform="translate(0,0)"/>
<path d="" fill="#0F0500" transform="translate(0,0)"/>
<path d="" fill="#020001" transform="translate(0,0)"/>
<path d="" fill="#0E0400" transform="translate(0,0)"/>
<path d="" fill="#010000" transform="translate(0,0)"/>
<path d="" fill="#0F0300" transform="translate(0,0)"/>
<path d="" fill="#010000" transform="translate(0,0)"/>
<path d="" fill="#0D0200" transform="translate(0,0)"/>
<path d="" fill="#010000" transform="translate(0,0)"/>
<path d="" fill="#0D0500" transform="translate(0,0)"/>
<path d="" fill="#020000" transform="translate(0,0)"/>
<path d="" fill="#0E0600" transform="translate(0,0)"/>
<path d="" fill="#020000" transform="translate(0,0)"/>
<path d="" fill="#0D0600" transform="translate(0,0)"/>
<path d="" fill="#020101" transform="translate(0,0)"/>
<path d="" fill="#0D0500" transform="translate(0,0)"/>
<path d="" fill="#020000" transform="translate(0,0)"/>
<path d="" fill="#0E0400" transform="translate(0,0)"/>
<path d="" fill="#020000" transform="translate(0,0)"/>
<path d="" fill="#0E0300" transform="translate(0,0)"/>
<path d="" fill="#010000" transform="translate(0,0)"/>
<path d="" fill="#0F0000" transform="translate(0,0)"/>
<path d="" fill="#010000" transform="translate(0,0)"/>
<path d="" fill="#080000" transform="translate(0,0)"/>
<path d="" fill="#000000" transform="translate(0,0)"/>
<path d="" fill="#080000" transform="translate(0,0)"/>
<path d="" fill="#000000" transform="translate(0,0)"/>
<path d="" fill="#000000" transform="translate(0,0)"/>
<path d="" fill="#000000" transform="translate(0,0)"/>
<path d="" fill="#000000" transform="translate(0,0)"/>
<path d="" fill="#010000" transform="translate(0,0)"/>
<path d="" fill="#010000" transform="translate(0,0)"/>
<path d="" fill="#000000" transform="translate(0,0)"/>
<path d="" fill="#000000" transform="translate(0,0)"/>
<path d="" fill="#010101" transform="translate(0,0)"/>
<path d="" fill="#040000" transform="translate(0,0)"/>
<path d="" fill="#040101" transform="translate(0,0)"/>
<path d="" fill="#020101" transform="translate(0,0)"/>
</svg>
